<?xml version="1.0" encoding="utf-8"?>
<!-- Generator: Adobe Illustrator 24.0.2, SVG Export Plug-In . SVG Version: 6.00 Build 0)  -->
<svg version="1.1" id="Слой_1" xmlns="http://www.w3.org/2000/svg" xmlns:xlink="http://www.w3.org/1999/xlink" x="0px" y="0px"
	 viewBox="0 0 286 78" style="enable-background:new 0 0 286 78;" xml:space="preserve">
<style type="text/css">
	.st0{fill:#2F3543;}
</style>
<polygon class="st0" points="111.2,11.8 107,11.8 98.4,24.9 89.8,11.8 85.5,11.8 96.5,28.1 96.5,40 100.2,40 100.2,28.1 "/>
<path class="st0" d="M15.4,25l-4.3-0.8c-1.8-0.4-3.1-0.9-3.8-1.6c-0.8-0.7-1.2-1.7-1.2-2.9c0-1.5,0.6-2.8,1.8-3.7
	c1.2-0.9,2.9-1.4,5-1.4c1.7,0,3.3,0.3,4.6,0.8c1.4,0.5,2.7,1.3,3.9,2.4l1.3-2.8c-1.1-1.1-2.6-2-4.2-2.6c-1.7-0.6-3.5-0.9-5.5-0.9
	c-2.1,0-4,0.3-5.6,1c-1.6,0.7-2.8,1.7-3.7,3c-0.9,1.3-1.3,2.7-1.3,4.4c0,2.1,0.6,3.7,1.9,5c1.3,1.2,3.2,2.1,5.8,2.6l4.3,0.9
	c1.9,0.4,3.3,0.9,4,1.5c0.8,0.6,1.2,1.6,1.2,2.8c0,1.4-0.6,2.5-1.7,3.4c-1.1,0.8-2.8,1.2-5.1,1.2c-1.3,0-2.5-0.1-3.6-0.3
	C8,36.6,7,36.3,6,35.8c-1-0.5-1.9-1.1-2.8-1.8l-1.3,3c1.3,1.1,2.9,1.9,4.7,2.5c1.8,0.6,3.9,0.9,6.1,0.9c2.2,0,4-0.3,5.6-1
	s2.8-1.6,3.6-2.8c0.9-1.2,1.3-2.6,1.3-4.2c0-2-0.6-3.6-1.9-4.8C20.1,26.4,18.1,25.6,15.4,25z"/>
<polygon class="st0" points="79.2,33.9 62.5,11.8 59.6,11.8 59.6,40 63.1,40 63.1,17.9 79.9,40 82.7,40 82.7,11.8 79.2,11.8 "/>
<path class="st0" d="M47.6,13.2c-1.9-1.2-4.3-1.8-7-1.8c-2.7,0-5.1,0.6-7,1.8c-1.9,1.2-3.4,2.8-4.5,5c-1,2.2-1.6,4.7-1.6,7.7
	c0,2.9,0.5,5.5,1.6,7.7c1.1,2.2,2.6,3.8,4.5,5c1.9,1.2,4.3,1.8,7,1.8c2.7,0,5-0.6,7-1.8c2-1.2,3.5-2.9,4.6-5
	c1.1-2.2,1.6-4.8,1.6-7.7c0-2.9-0.5-5.5-1.6-7.6C51.1,16,49.5,14.4,47.6,13.2z M47.4,34.2c-1.6,1.9-3.9,2.9-6.8,2.9
	c-3,0-5.3-1-6.8-3c-1.5-2-2.3-4.7-2.3-8.2c0-3.5,0.8-6.3,2.3-8.2c1.5-1.9,3.8-2.9,6.8-2.9c2.9,0,5.2,1,6.8,2.9
	c1.6,1.9,2.4,4.7,2.4,8.2S49,32.2,47.4,34.2z"/>
<path class="st0" d="M241.6,11.8L229.1,40h3.8l3.1-7h14.6l3.1,7h3.8l-12.7-28.2H241.6z M243.2,16h0.2l6,14h-12.1L243.2,16z"/>
<path class="st0" d="M215.2,28h7.1v8c-0.9,0.3-1.8,0.6-2.7,0.8c-1.2,0.2-2.4,0.4-3.7,0.4c-3.5,0-6.2-0.9-7.8-2.8s-2.5-4.7-2.5-8.3
	c0-3.6,0.9-6.3,2.6-8.3c1.7-1.9,4.2-2.9,7.5-2.9c1.2,0,2.2,0.1,3,0.3c0.9,0.2,1.7,0.5,2.5,1s1.6,1.1,2.5,1.8l1.4-3
	c-1.2-1.1-2.6-2-4.1-2.6c-1.5-0.6-3.3-0.9-5.4-0.9c-2.9,0-5.5,0.6-7.6,1.8c-2.1,1.2-3.7,2.8-4.8,5c-1.1,2.2-1.7,4.7-1.7,7.7
	s0.5,5.6,1.6,7.7c1.1,2.2,2.7,3.8,4.8,5c2.1,1.1,4.7,1.7,7.8,1.7c1.8,0,3.5-0.2,5.3-0.6c1.8-0.4,3.2-0.9,4.4-1.5V25.1h-10.3V28z"/>
<path class="st0" d="M121,11.8L108.5,40h3.8l3.1-7H130l3.1,7h3.8l-12.7-28.2H121z M122.6,16h0.2l6,14h-12.1L122.6,16z"/>
<path class="st0" d="M192.3,28.6c0,2.8-0.7,4.9-2,6.3c-1.3,1.4-3.2,2.1-5.8,2.1c-2.7,0-4.6-0.7-5.8-2.1c-1.2-1.4-1.8-3.5-1.8-6.3
	V11.8h-3.8v17c0,3.8,0.9,6.7,2.8,8.7c1.9,1.9,4.8,2.9,8.6,2.9c3.8,0,6.6-1,8.5-2.9c1.9-2,2.9-4.9,2.9-8.7v-17h-3.7V28.6z"/>
<path class="st0" d="M280.4,30.6c-0.6-1.2-1.3-2.1-2.1-2.6c-0.5-0.3-1-0.5-1.5-0.7c0.6-0.1,1.1-0.3,1.6-0.5c1.4-0.6,2.4-1.5,3.2-2.7
	s1.1-2.6,1.1-4.3c0-2.5-0.8-4.5-2.5-5.9c-1.6-1.4-3.9-2.1-7-2.1h-11.7V40h3.7V28h5.9c1.3,0,2.4,0.2,3.2,0.5c0.9,0.3,1.5,1.1,2,2.2
	l3.9,9.3h4.1L280.4,30.6z M265.2,25.1V14.8h7.4c2.1,0,3.6,0.4,4.7,1.3c1.1,0.9,1.6,2.1,1.6,3.8c0,1.7-0.5,3-1.6,3.8
	c-1.1,0.9-2.6,1.3-4.7,1.3H265.2z"/>
<path class="st0" d="M137.7,16.2h2.1c0,0-0.1,0.6-0.3,1.3c-0.3,0.7-0.8,1.4-1.5,2.2l1.6,1.3c1-1,1.7-1.9,2-2.9
	c0.4-1,0.6-2.1,0.6-3.2v-3h-4.4V16.2z"/>
<path class="st0" d="M160.2,25l-4.3-0.8c-1.8-0.4-3.1-0.9-3.8-1.6c-0.8-0.7-1.2-1.7-1.2-2.9c0-1.5,0.6-2.8,1.8-3.7
	c1.2-0.9,2.9-1.4,5-1.4c1.7,0,3.3,0.3,4.6,0.8c1.4,0.5,2.7,1.3,3.9,2.4l1.3-2.8c-1.1-1.1-2.6-2-4.2-2.6c-1.7-0.6-3.5-0.9-5.5-0.9
	c-2.1,0-4,0.3-5.6,1c-1.6,0.7-2.8,1.7-3.7,3c-0.9,1.3-1.3,2.7-1.3,4.4c0,2.1,0.6,3.7,1.9,5c1.3,1.2,3.2,2.1,5.8,2.6l4.3,0.9
	c1.9,0.4,3.3,0.9,4,1.5c0.8,0.6,1.2,1.6,1.2,2.8c0,1.4-0.6,2.5-1.7,3.4c-1.1,0.8-2.8,1.2-5.1,1.2c-1.3,0-2.5-0.1-3.6-0.3
	c-1.1-0.2-2.1-0.6-3.1-1c-1-0.5-1.9-1.1-2.8-1.8l-1.3,3c1.3,1.1,2.9,1.9,4.7,2.5c1.8,0.6,3.9,0.9,6.1,0.9c2.2,0,4-0.3,5.6-1
	c1.6-0.7,2.8-1.6,3.6-2.8c0.9-1.2,1.3-2.6,1.3-4.2c0-2-0.6-3.6-1.9-4.8C164.9,26.4,162.9,25.6,160.2,25z"/>
<path class="st0" d="M95.1,69.6c-0.3,0-0.5-0.1-0.6-0.2c-0.1-0.1-0.2-0.4-0.2-0.7c0-0.3,0-1.3,0.1-3s0.1-2.7,0.1-3
	c0-0.9-0.3-1.6-0.9-2.1c-0.6-0.5-1.4-0.8-2.4-0.8c-1.4,0-2.8,0.5-4.1,1.5l0.2,1.4l0.2,0.1c0.6-0.5,1.2-0.9,1.8-1.2s1.1-0.4,1.6-0.4
	c0.6,0,1.1,0.2,1.4,0.5c0.3,0.3,0.5,0.8,0.5,1.4l0,1.6L89,65.6c-0.7,0.2-1.3,0.5-1.7,0.9c-0.4,0.4-0.6,1-0.6,1.7
	c0,0.9,0.3,1.7,0.9,2.2c0.6,0.5,1.4,0.8,2.5,0.8c0.8-0.3,1.7-0.9,2.6-1.8h0.2c0,0.5,0.2,0.9,0.5,1.2c0.3,0.3,0.7,0.5,1.2,0.5
	c0.4,0,0.9-0.2,1.4-0.5l0.2-1.1l-0.2-0.2C95.6,69.5,95.3,69.6,95.1,69.6z M92.8,67.9c-0.9,1.1-1.8,1.7-2.7,1.7
	c-0.5,0-0.9-0.1-1.2-0.4c-0.3-0.3-0.4-0.7-0.4-1.2c0-0.3,0.1-0.6,0.2-0.7c0.1-0.2,0.4-0.3,0.7-0.4l3.5-0.8L92.8,67.9z"/>
<path class="st0" d="M103,65.3c0.6-0.3,1-0.6,1.3-1.1c0.3-0.5,0.5-1,0.5-1.6c0-0.8-0.3-1.5-1-2c-0.7-0.5-1.6-0.7-2.7-0.7
	c-1.1,0-2.1,0.2-3,0.7L98,62.1l0.2,0.1c0.9-0.5,1.9-0.8,2.8-0.8c0.7,0,1.2,0.1,1.5,0.4c0.4,0.2,0.5,0.6,0.5,1.1
	c0,0.4-0.1,0.8-0.4,1.1s-0.6,0.6-0.9,0.7l-2.3,0l-0.1,1.2l0.1,0.1h2.4c0.6,0.1,1,0.3,1.3,0.6c0.3,0.3,0.5,0.7,0.5,1.1
	c0,0.6-0.2,1-0.7,1.4s-1.1,0.5-1.9,0.5c-0.5,0-1-0.1-1.4-0.2c-0.4-0.2-0.9-0.4-1.2-0.6l-0.1,0.1l-0.3,1.5c0.4,0.3,0.9,0.5,1.4,0.6
	c0.6,0.1,1.1,0.2,1.8,0.2c1.3,0,2.4-0.3,3.2-0.9c0.8-0.6,1.2-1.4,1.2-2.4C105.3,66.5,104.6,65.6,103,65.3z"/>
<polygon class="st0" points="127.6,60 127.7,64.8 122.4,64.7 122.4,60 120.6,60 120.7,66.3 120.6,71 122.4,71 122.4,66.2 
	127.7,66.2 127.7,66.3 127.6,71 129.5,71 129.4,66.2 129.5,60 "/>
<path class="st0" d="M224.4,57.7c0.6,0.4,1.3,0.5,2.1,0.5s1.5-0.2,2.1-0.5c0.6-0.4,1-0.9,1.3-1.6l-1-0.7h-0.2
	c-0.2,0.5-0.4,0.9-0.8,1.2c-0.3,0.2-0.8,0.4-1.4,0.4c-0.6,0-1.1-0.1-1.4-0.4c-0.4-0.3-0.6-0.7-0.8-1.2h-0.3l-1,0.7
	C223.4,56.9,223.8,57.4,224.4,57.7z"/>
<polygon class="st0" points="62.4,60 61.8,61.6 59.4,67.6 59.3,67.6 57.1,61.7 56.5,60 54.6,60 53.4,71 54.9,71 55.2,67.2 
	55.7,62.6 55.8,62.6 58.6,69.8 59.9,69.8 62.9,62.6 63,62.6 63.5,67.5 63.8,71 65.3,71 64.2,60 "/>
<polygon class="st0" points="79.5,60 79.6,66.3 79.5,71 81.4,71 81.3,66.2 81.3,61.4 83.3,61.4 85.8,61.4 85.9,60.1 85.8,60 "/>
<path class="st0" d="M76.1,69.6c-0.3,0-0.5-0.1-0.6-0.2c-0.1-0.1-0.2-0.4-0.2-0.7c0-0.3,0-1.3,0.1-3s0.1-2.7,0.1-3
	c0-0.9-0.3-1.6-0.9-2.1c-0.6-0.5-1.4-0.8-2.4-0.8c-1.4,0-2.8,0.5-4.1,1.5l0.2,1.4l0.2,0.1c0.6-0.5,1.2-0.9,1.8-1.2s1.1-0.4,1.6-0.4
	c0.6,0,1.1,0.2,1.4,0.5c0.3,0.3,0.5,0.8,0.5,1.4l0,1.6L70,65.6c-0.7,0.2-1.3,0.5-1.7,0.9c-0.4,0.4-0.6,1-0.6,1.7
	c0,0.9,0.3,1.7,0.9,2.2c0.6,0.5,1.4,0.8,2.5,0.8c0.8-0.3,1.7-0.9,2.6-1.8h0.2c0,0.5,0.2,0.9,0.5,1.2c0.3,0.3,0.7,0.5,1.2,0.5
	c0.4,0,0.9-0.2,1.4-0.5l0.2-1.1l-0.2-0.2C76.6,69.5,76.3,69.6,76.1,69.6z M73.8,67.9c-0.9,1.1-1.8,1.7-2.7,1.7
	c-0.5,0-0.9-0.1-1.2-0.4c-0.3-0.3-0.4-0.7-0.4-1.2c0-0.3,0.1-0.6,0.2-0.7c0.1-0.2,0.4-0.3,0.7-0.4l3.5-0.8L73.8,67.9z"/>
<polygon class="st0" points="115,60 110,68.3 109.9,68.3 109.9,60 108.1,60.1 108.2,66.3 108.1,71 109.9,71 114.9,62.6 115.1,62.6 
	115.1,66.5 115,71 116.8,71 116.8,66.2 116.8,60 "/>
<polygon class="st0" points="200.7,60 200.6,61.2 200.7,61.4 202.8,61.4 204.1,61.4 204.1,66.3 204.1,71 205.9,71 205.9,66.2 
	205.9,61.4 207.3,61.4 209.3,61.4 209.4,60.1 209.3,60 "/>
<path class="st0" d="M196.7,61.4c0.8,0,1.6,0.3,2.5,0.8l0.2-0.1l0.3-1.7c-0.4-0.2-0.9-0.3-1.4-0.5c-0.5-0.1-1-0.2-1.5-0.2
	c-1.5,0-2.7,0.5-3.6,1.6c-0.9,1-1.3,2.4-1.3,4.2c0,1.7,0.4,3.1,1.2,4.1c0.8,1,2,1.5,3.4,1.5c1,0,2-0.2,2.9-0.6l0.2-1.6l-0.2-0.1
	c-0.4,0.3-0.9,0.5-1.3,0.6c-0.5,0.1-0.9,0.2-1.3,0.2c-1,0-1.7-0.4-2.3-1.1c-0.5-0.8-0.8-1.8-0.8-3.1c0-1.3,0.3-2.3,0.8-3
	C195,61.7,195.8,61.4,196.7,61.4z"/>
<path class="st0" d="M215,59.8c-1.5,0-2.7,0.5-3.6,1.6c-0.9,1-1.3,2.4-1.3,4.2c0,1.7,0.4,3.1,1.3,4.1c0.9,1,2.1,1.5,3.7,1.5
	c1.1,0,2.2-0.3,3.4-0.8l0.3-1.6l-0.2-0.1c-0.5,0.3-1,0.6-1.5,0.8c-0.6,0.2-1.1,0.3-1.7,0.3c-1.1,0-2-0.4-2.6-1.1
	c-0.6-0.7-0.9-1.8-0.9-3.1v0l6.9,0l0.2-0.2c0.1-0.4,0.1-0.8,0.1-1.2c0-1.3-0.4-2.3-1.1-3C217.2,60.2,216.2,59.8,215,59.8z M217.2,64
	l-5.3,0.1c0.2-0.9,0.5-1.7,1.1-2.2c0.5-0.5,1.2-0.8,2-0.8c0.7,0,1.3,0.2,1.7,0.7c0.4,0.4,0.6,1.1,0.6,1.9L217.2,64z"/>
<path class="st0" d="M141.1,61.4c0.8,0,1.6,0.3,2.5,0.8l0.2-0.1l0.3-1.7c-0.4-0.2-0.9-0.3-1.4-0.5c-0.5-0.1-1-0.2-1.5-0.2
	c-1.5,0-2.7,0.5-3.6,1.6c-0.9,1-1.3,2.4-1.3,4.2c0,1.7,0.4,3.1,1.2,4.1c0.8,1,2,1.5,3.4,1.5c1,0,2-0.2,2.9-0.6l0.2-1.6l-0.2-0.1
	c-0.4,0.3-0.9,0.5-1.3,0.6c-0.5,0.1-0.9,0.2-1.3,0.2c-1,0-1.7-0.4-2.3-1.1c-0.5-0.8-0.8-1.8-0.8-3.1c0-1.3,0.3-2.3,0.8-3
	C139.4,61.7,140.2,61.4,141.1,61.4z"/>
<polygon class="st0" points="230.9,60 229,60 224,68.3 223.9,68.3 223.9,60 222.1,60.1 222.2,66.3 222.1,71 223.9,71 228.9,62.6 
	229.1,62.6 229.1,66.5 229,71 230.9,71 230.8,66.2 "/>
<path class="st0" d="M148.3,60L148.3,60l-0.2,1.9c-0.2,2-0.4,3.4-0.6,4.5c-0.2,1-0.5,1.8-0.8,2.3c-0.4,0.5-0.8,0.9-1.4,1.1l0.3,1.5
	l0.5,0c0.7-0.2,1.2-0.5,1.7-1.1c0.4-0.6,0.8-1.5,1.1-2.7c0.3-1.2,0.5-3,0.7-5.2l0.1-0.9h2.9l0,5l-0.1,4.7h1.9l-0.1-4.8l0.1-6.2
	H148.3z"/>
<path class="st0" d="M165.6,69.6c-0.3,0-0.5-0.1-0.6-0.2c-0.1-0.1-0.2-0.4-0.2-0.7c0-0.3,0-1.3,0.1-3c0.1-1.7,0.1-2.7,0.1-3
	c0-0.9-0.3-1.6-0.9-2.1c-0.6-0.5-1.4-0.8-2.4-0.8c-1.4,0-2.8,0.5-4.1,1.5l0.2,1.4l0.2,0.1c0.6-0.5,1.2-0.9,1.8-1.2s1.1-0.4,1.6-0.4
	c0.6,0,1.1,0.2,1.4,0.5c0.3,0.3,0.5,0.8,0.5,1.4l0,1.6l-3.9,0.9c-0.7,0.2-1.3,0.5-1.7,0.9c-0.4,0.4-0.6,1-0.6,1.7
	c0,0.9,0.3,1.7,0.9,2.2c0.6,0.5,1.4,0.8,2.5,0.8c0.8-0.3,1.7-0.9,2.6-1.8h0.2c0,0.5,0.2,0.9,0.5,1.2c0.3,0.3,0.7,0.5,1.2,0.5
	c0.4,0,0.9-0.2,1.4-0.5l0.2-1.1l-0.2-0.2C166.1,69.5,165.8,69.6,165.6,69.6z M163.3,67.9c-0.9,1.1-1.8,1.7-2.7,1.7
	c-0.5,0-0.9-0.1-1.2-0.4c-0.3-0.3-0.4-0.7-0.4-1.2c0-0.3,0.1-0.6,0.2-0.7c0.1-0.2,0.4-0.3,0.7-0.4l3.5-0.8L163.3,67.9z"/>
<path class="st0" d="M185.3,59.8c-1.6,0-2.8,0.5-3.7,1.5c-0.9,1-1.3,2.4-1.3,4.3c0,1.8,0.4,3.1,1.2,4.1c0.8,1,2,1.4,3.5,1.4
	c1.6,0,2.8-0.5,3.7-1.5c0.9-1,1.3-2.5,1.3-4.3c0-1.8-0.4-3.1-1.2-4.1C188,60.3,186.8,59.8,185.3,59.8z M187.4,68.8
	c-0.5,0.7-1.3,1-2.3,1c-1,0-1.8-0.4-2.3-1.2c-0.5-0.8-0.8-1.9-0.8-3.5c0-1.3,0.3-2.3,0.8-3c0.5-0.7,1.3-1,2.3-1c1,0,1.7,0.4,2.3,1.2
	c0.5,0.8,0.8,1.9,0.8,3.5C188.2,67.1,188,68.1,187.4,68.8z"/>
<path class="st0" d="M176.9,66.2l0-6.2h-6l-0.2,1.9c-0.2,1.8-0.3,3.2-0.5,4.2c-0.2,1-0.4,1.8-0.7,2.3c-0.3,0.5-0.6,1-1.1,1.3h-0.9
	v4.1l1.3-0.1L169,71h8l0.2,2.7l1.3-0.1v-3.9h-1.6L176.9,66.2z M175.1,69.6h-5c0.6-0.5,1-1.3,1.3-2.4c0.3-1.1,0.6-2.8,0.8-5l0.1-0.9
	h2.8l0,5.1L175.1,69.6z"/>
</svg>
